<svg width="361" height="162" viewBox="0 0 361 162" fill="none" xmlns="http://www.w3.org/2000/svg">
<g clip-path="url(#clip0)">
<path d="M77.0208 35.2707C77.0208 35.1615 77.0208 35.0523 77.0026 34.9431C76.9845 34.7792 76.9664 34.6154 76.9482 34.4516C76.8575 33.6507 76.7487 32.8498 76.6217 32.0671C76.5854 31.9033 76.5854 31.7395 76.5491 31.5938C76.531 31.4846 76.5128 31.3936 76.4947 31.3026C76.4403 31.0114 76.3677 30.7201 76.3133 30.4289C76.2045 29.992 76.1137 29.5552 76.0049 29.1183C75.9323 28.8271 75.8416 28.5359 75.7691 28.2465C75.6421 27.8278 75.5332 27.4273 75.3881 27.0269C75.2974 26.7357 75.2067 26.4444 75.0979 26.1532C74.9709 25.7527 74.8258 25.3705 74.6625 24.97C74.5536 24.697 74.4448 24.424 74.336 24.1509C74.2815 24.0235 74.2253 23.8779 74.1727 23.7505C74.1364 23.6595 74.0638 23.5685 74.0276 23.4593C73.5378 22.3671 72.9935 21.3114 72.3949 20.2921C72.3768 20.2557 72.3586 20.2193 72.3405 20.1829C72.2861 20.0736 72.2135 19.9826 72.1409 19.8734C71.7056 19.1817 71.252 18.49 70.7804 17.8166C70.7078 17.7073 70.6353 17.5981 70.5445 17.4889C70.4901 17.3979 70.4357 17.3433 70.3813 17.2523C69.8733 16.597 69.3473 15.9417 68.803 15.3229C68.7849 15.3047 68.7849 15.2864 68.7668 15.2682C68.2225 14.6676 67.6602 14.1033 67.0978 13.539C67.0434 13.5026 67.0071 13.448 66.9527 13.3934C66.8076 13.266 66.6443 13.1386 66.4992 13.0112C66.1364 12.6653 65.7554 12.3195 65.3563 12.01C65.2656 11.919 65.1749 11.8462 65.0842 11.7552C64.9391 11.646 64.7939 11.555 64.6488 11.4458C64.286 11.1545 63.905 10.8815 63.5241 10.6085C63.3971 10.5175 63.2701 10.4082 63.125 10.3172C63.0162 10.2444 62.8892 10.1716 62.7803 10.0988C62.3812 9.84398 61.9821 9.58915 61.583 9.35252C61.4198 9.26151 61.2565 9.13409 61.0751 9.04308C60.9445 8.96299 60.8121 8.892 60.6796 8.81737C60.5853 8.75548 60.4964 8.69542 60.3948 8.64445C60.2134 8.53524 60.032 8.44423 59.8506 8.33501L53.719 5.04041C54.0093 5.20423 54.2814 5.36805 54.5535 5.53187C49.0569 2.34647 42.5262 0.890293 35.5058 1.764C16.4036 4.11209 0.984014 22.6602 1.09286 43.1013C1.14728 51.9476 4.35456 62.2737 11.56 70.9817C21.9021 83.4793 38.3357 103.724 38.3357 103.724L38.9688 104.064C38.9997 104.103 39.016 104.123 39.016 104.123L45.1476 107.417L53.9095 106.325V76.2804C54.7984 75.8435 55.5785 75.3702 56.4492 74.8606C56.4674 74.8424 56.4855 74.8424 56.5218 74.8242C57.2293 74.4055 57.9368 73.9505 58.6261 73.4772C58.8257 73.3498 59.0071 73.2042 59.2066 73.0768C59.515 72.8583 59.8234 72.6399 60.1318 72.4215C60.2769 72.3123 60.4039 72.1849 60.549 72.0756C61.1295 71.6388 61.6737 71.1837 62.2361 70.7105C62.4175 70.5467 62.6352 70.401 62.8348 70.219L63.0706 69.9824C63.5241 69.5819 63.9413 69.1633 64.3586 68.7446C64.5944 68.508 64.8484 68.2896 65.0842 68.0529C65.1386 67.9983 65.193 67.9255 65.2475 67.8709C65.574 67.5251 65.8824 67.1792 66.1908 66.8152C66.4629 66.524 66.7531 66.2327 67.0253 65.9051C67.0797 65.8505 67.1341 65.7595 67.1885 65.7049C67.4606 65.3772 67.7146 65.0496 67.9686 64.7037C68.2225 64.3761 68.4947 64.0667 68.7486 63.7208C68.803 63.6298 68.8756 63.5388 68.9482 63.4296C69.184 63.1019 69.4017 62.7743 69.6375 62.4285C69.8552 62.119 70.091 61.7914 70.2906 61.4819C70.3813 61.3545 70.4538 61.2089 70.5264 61.0815C70.7441 60.7356 70.9618 60.3716 71.1795 60.0076C71.3427 59.7163 71.5423 59.4251 71.7056 59.1338C71.7963 58.97 71.8688 58.788 71.9595 58.6424C72.1772 58.2419 72.3768 57.8597 72.5582 57.4592C72.7033 57.1862 72.8484 56.9314 72.9935 56.6401C73.0842 56.4581 73.1568 56.2761 73.2294 56.0941C73.4289 55.6572 73.6285 55.2022 73.8099 54.7653C73.9187 54.4923 74.0457 54.2374 74.1545 53.9644C74.2271 53.7824 74.2815 53.6004 74.3541 53.4183C74.5536 52.8905 74.7351 52.3626 74.9165 51.8347C75.0072 51.5617 75.1341 51.2887 75.2067 51.0156C75.2611 50.87 75.2974 50.7244 75.3337 50.5788C75.5514 49.8689 75.7328 49.1408 75.9142 48.4309C75.9868 48.1579 76.0775 47.9031 76.1319 47.6482C76.15 47.539 76.1682 47.448 76.1863 47.3388C76.2407 47.1204 76.277 46.9019 76.3314 46.6653C76.4584 46.01 76.5854 45.3365 76.6761 44.6631C76.7305 44.4082 76.7668 44.1352 76.8031 43.8804C76.8212 43.6983 76.8575 43.5345 76.8757 43.3525C76.9301 42.8792 76.9664 42.4242 77.0026 41.9509C77.0208 41.6597 77.0571 41.3503 77.0752 41.059C77.1296 40.1307 77.1659 39.1842 77.1659 38.2559C77.1677 37.2547 77.1133 36.2536 77.0208 35.2707Z" fill="#FF2A24"/>
<path d="M62.8845 35.389C62.9389 48.7312 54.576 61.4 42.5306 66.2054L39.4648 67.3885V91.8523L39.1746 91.2881C38.4127 90.3962 37.6145 89.4496 36.78 88.4849L36.6893 88.3939C30.9206 81.6955 23.7368 73.3771 17.7141 65.8413C12.0361 58.7243 8.62564 49.9144 8.58936 42.2876V42.0692C8.58936 26.0512 20.7255 11.544 35.6553 9.68739C36.7619 9.55998 37.7777 9.50537 38.7755 9.50537C44.5805 9.50537 49.932 11.5076 54.2314 15.2937C56.9888 17.7328 59.1475 20.7362 60.5988 24.14C62.0681 27.5438 62.8482 31.3481 62.8845 35.389Z" fill="white"/>
<path d="M48.8542 118.807C36.6564 108.424 21.6377 105.929 15.3792 113.253C15.1234 113.552 9.44536 120.28 9.44536 120.28C3.18863 127.604 8.02857 142.011 20.2391 152.406C32.4369 162.789 47.4556 165.285 53.7123 157.96C53.7123 157.96 59.3903 151.232 59.6461 150.934C65.9047 143.609 61.0647 129.2 48.8542 118.807Z" fill="#FF2A24"/>
<path d="M55.8108 140.762C55.8108 142.31 55.3936 143.638 54.5047 144.639C52.7994 146.569 49.6067 146.969 45.5069 145.804C41.2801 144.621 36.6542 141.891 32.4456 138.159C23.8832 130.533 19.8196 121.031 23.4115 116.972C24.4637 115.771 26.1145 115.152 28.2188 115.152C29.4705 115.152 30.8673 115.37 32.3912 115.789C36.6179 116.99 41.2438 119.702 45.4525 123.434C51.9106 129.186 55.8108 136.012 55.8108 140.762Z" fill="white"/>
<path d="M29.4043 121.489L36.1109 122.129L49.3482 138.899L43.0389 138.752L29.4043 121.489Z" fill="#FF0000"/>
<path d="M15.2462 124.909L11.0919 129.769C10.2937 125.109 11.999 123.471 12.8697 122.397C13.7768 121.25 15.4638 119.048 15.4638 119.048C14.9378 120.941 14.9196 122.925 15.2462 124.909Z" fill="white"/>
<path d="M17.4233 131.226L13.251 136.14C12.6342 134.848 12.1625 133.683 11.8179 132.627V132.609L15.9721 127.749C16.353 128.932 16.8428 130.115 17.4233 131.226Z" fill="white"/>
<path d="M20.815 136.759L16.6426 141.692C16.0621 140.928 15.5542 140.181 15.0825 139.453L19.2912 134.521C19.7628 135.285 20.2708 136.031 20.815 136.759Z" fill="white"/>
<path d="M25.5327 142.219L21.4329 147.024C20.9431 146.569 20.4896 146.114 20.0542 145.659L24.1721 140.817C24.6075 141.309 25.061 141.782 25.5327 142.219Z" fill="white"/>
<path d="M32.3885 147.844L28.3613 152.558C27.9803 152.303 27.5812 152.03 27.1821 151.739L31.1912 147.024C31.5903 147.297 31.9894 147.589 32.3885 147.844Z" fill="white"/>
<path d="M42.5881 20.1177L28.1046 21.3882L19.1177 52.352L18.9326 52.9909L26.6442 52.3138L33.6574 27.7408L36.9463 27.4532L43.3428 50.4754L43.4462 50.8394L51.1233 50.1641L42.5881 20.1177Z" fill="#FF0000"/>
<path d="M71.4118 27.7808L67.2575 26.0697C65.4616 19.9174 62.414 16.0221 60.2915 13.9106C63.1033 15.203 68.9991 18.8981 71.4118 27.7808Z" fill="white"/>
<path d="M72.7549 36.3537L68.7095 34.9157C68.6551 33.6051 68.5281 32.3492 68.3467 31.166L72.3376 32.5858C72.7004 34.042 72.7549 36.3537 72.7549 36.3537Z" fill="white"/>
<path d="M188.572 42.4009H171.404V28.9932H159.335V76.0441H171.172V76.0478H188.572C193.204 76.0478 197.396 74.1748 200.425 71.1168C203.455 68.077 205.34 63.8705 205.34 59.2234C205.338 49.9294 197.819 42.4009 188.572 42.4009ZM193.697 59.0305C193.697 62.6 190.825 65.4814 187.268 65.4814H171.402V52.5268H187.268C190.825 52.5268 193.697 55.4064 193.697 58.9595V59.0305Z" fill="black"/>
<path d="M121.436 92.6606C107.382 92.6606 95.9678 103.882 95.9678 117.754C95.9678 131.608 107.38 142.848 121.436 142.848C135.507 142.848 146.903 131.608 146.903 117.754C146.901 103.882 135.507 92.6606 121.436 92.6606ZM121.436 132.103C113.933 132.103 107.857 125.67 107.857 117.754C107.857 109.82 113.933 103.404 121.436 103.404C128.938 103.404 135.032 109.818 135.032 117.754C135.032 125.67 128.937 132.103 121.436 132.103Z" fill="black"/>
<path d="M281.635 77.4799C295.62 77.4799 306.943 66.311 306.943 52.5265C306.943 38.7419 295.618 27.5566 281.635 27.5566C267.65 27.5566 256.309 38.7419 256.309 52.5265C256.309 66.311 267.652 77.4799 281.635 77.4799ZM281.635 38.2486C289.085 38.2486 295.142 44.6285 295.142 52.5283C295.142 60.4099 289.083 66.7898 281.635 66.7898C274.168 66.7898 268.109 60.4099 268.109 52.5283C268.109 44.6267 274.168 38.2486 281.635 38.2486Z" fill="black"/>
<path d="M282.004 92.8193C268.038 92.8193 256.712 103.988 256.712 117.755C256.712 131.521 267.965 142.672 282.659 142.672C292.181 142.672 300.125 137.912 304.453 131.579L293.941 126.803C291.711 130.005 287.354 131.998 282.657 131.998C276.185 131.998 270.84 127.74 269.097 121.899H305.295V121.89H306.922C307.151 120.547 307.274 119.169 307.274 117.755C307.278 103.988 295.953 92.8193 282.004 92.8193ZM282.004 103.493C287.804 103.493 292.736 107.367 294.643 112.798H269.349C271.258 107.367 276.192 103.493 282.004 103.493Z" fill="black"/>
<path d="M166.562 94.4082H149.729V105.04H166.562V141.459H178.629V105.04H195.573V94.4082H178.629H166.562Z" fill="black"/>
<path d="M328.252 94.4082H311.419V105.04H328.252V141.459H340.319V105.04H357.262V94.4082H340.319H328.252Z" fill="black"/>
<path d="M340.319 28.9932H328.252H311.419V39.6233H328.252V76.0442H340.319V39.6233H357.262V28.9932H340.319Z" fill="black"/>
<path d="M217.794 28.9932H216.453V76.0442H228.522V39.6233H251.849V28.9932H228.522H217.794Z" fill="black"/>
<path d="M241.217 115.599C244.217 113.934 245.776 110.272 245.776 106.851C245.776 99.9782 240.228 94.4102 233.377 94.4102H215.96H203.891V141.461H215.96V141.454H235.401C239.205 141.454 242.657 139.916 245.159 137.408C247.642 134.897 249.192 131.454 249.192 127.635C249.193 122.465 245.868 117.108 241.217 115.599ZM231.457 105.048C233.589 105.048 235.332 106.779 235.332 108.919C235.332 109.979 234.891 110.969 234.187 111.659C233.5 112.365 232.515 112.807 231.457 112.807H215.96V105.049H231.457V105.048ZM236.038 129.524C235.227 130.338 234.1 130.833 232.867 130.833H215.961V121.856H232.867C235.332 121.856 237.34 123.871 237.34 126.344C237.34 127.58 236.847 128.71 236.038 129.524Z" fill="black"/>
<path d="M131.302 28.9932H122.266H121.812H113.952H109.95L96.6655 76.0442H109.73L118.913 39.6233H125.183L134.609 76.0442H147.414L134.168 28.9932H131.302Z" fill="black"/>
</g>
<defs>
<clipPath id="clip0">
<rect width="361" height="162" fill="white"/>
</clipPath>
</defs>
</svg>
